<svg id="Слой_1" data-name="Слой 1" xmlns="http://www.w3.org/2000/svg" viewBox="0 0 945 141"><defs><style>.cls-1{fill:#e9e9e9;}</style></defs><title>Монтажная область 1</title><path class="cls-1" d="M91.14,3.48c3.72,0,4.68,1.32,4.08,5.16L82,83.76c-.84,3.72-2.16,5-6,5H62.46c-3.84,0-5-1.32-4.2-5l4.8-27.6H39.9L35,83.76c-.6,3.72-2.16,5-6,5H15.42c-3.84,0-4.8-1.32-4.2-5L24.54,8.64c.84-3.84,2.16-5.16,6-5.16H44.1c3.84,0,4.8,1.32,4.2,5.16L43.62,35.16H66.78L71.46,8.64c.6-3.84,2.28-5.16,6-5.16Z"/><path class="cls-1" d="M172.5,83.88c.6,3.24-.84,4.92-4.44,4.92H155.58c-5.88,0-7.68-1.2-8-5l-1.2-8.64h-26l-4.2,8.64c-1.92,3.84-3.84,5-9.6,5H93.3c-3.36,0-4.08-1.68-2.28-4.92l41-76.08c1.8-3.36,3.24-4.2,7-4.2h13.56c3.48,0,5,1,5.64,4ZM142.26,42.24a79.84,79.84,0,0,1,0-14.28l.36-2.52h-1.08a69.44,69.44,0,0,1-5.4,16.68L129.3,56.28h14.88Z"/><path class="cls-1" d="M182.34,33.72C185.82,13.08,201.06,1.8,224.7,1.8c17.28,0,27.24,7.08,29.88,21.36.84,3.48-.24,5.4-4.08,6.48l-12.36,4.2c-3.84,1.08-5.16.48-6-3.24-1.08-5.4-4.2-7.8-10.92-7.8-9.24,0-13.92,4-15.36,12.48l-4,21.84c-1.44,8.52,1.8,12.48,11,12.48,6.36,0,10.92-2.64,13.8-7.8,2.28-3.84,3.72-4.56,7.08-3.24l12.48,4.8c3.12,1.08,3.84,3.24,2,6.48-7.56,13.8-20.4,20.76-38.76,20.76-11.64,0-20.16-3.12-25.56-9.48s-7.44-14.76-5.64-25.2Z"/><path class="cls-1" d="M322.5,82.92c1.08,3.36-.36,5.88-4.2,5.88h-13c-6.36,0-8.28-.84-9.72-5L288.9,62.28c-1.32-4.2-2.88-6-7.2-6h-2l-4.8,27.48c-.84,3.72-2.16,5-6,5H255.3c-3.84,0-5-1.32-4.2-5L264.3,8.64c.84-3.72,2.16-5,6-5h13.56c3.84,0,5,1.32,4.2,5l-4.68,26.64H286L308,8a13.66,13.66,0,0,1,4.08-3.72,18.57,18.57,0,0,1,6.24-.72h13.92c3.72,0,4.44,2,2,5.28L305.82,44.16c2.64,1.8,4.68,4.8,6.12,8.76Z"/><path class="cls-1" d="M403.14,39.84c3.72,0,4.68,1.32,4.08,5.16l-3,17.4c-3,17.4-18.12,28.2-41.52,28.2q-17.46,0-25.56-9.72t-5.4-25.56l3.84-21.72c3.48-20.76,18.36-31.8,42.24-31.8,17.4,0,27.48,7.08,30.24,21.36.84,3.72-.36,5.4-4.2,6.48l-12.24,3.72c-4,1.08-5.16.48-6-3.24-1.2-4.92-4.92-7.32-11.28-7.32-9.24,0-13.8,4-15.36,12.48l-3.84,21.84c-1.44,8.52,1.68,12.48,10.92,12.48,8.16,0,13.56-3,14.52-8.16l.36-2.4H369.42c-3.84,0-4.8-1.2-4.2-5l1.56-9c.84-3.84,2.16-5.16,6-5.16Z"/><path class="cls-1" d="M483.54,83.88c.6,3.24-.84,4.92-4.44,4.92H466.62c-5.88,0-7.68-1.2-8-5l-1.2-8.64h-26l-4.2,8.64c-1.92,3.84-3.84,5-9.6,5h-13.2c-3.36,0-4.08-1.68-2.28-4.92l41-76.08c1.8-3.36,3.24-4.2,7-4.2h13.56c3.48,0,5,1,5.64,4ZM453.3,42.24a79.84,79.84,0,0,1,0-14.28l.36-2.52h-1.08a69.44,69.44,0,0,1-5.4,16.68l-6.84,14.16h14.88Z"/><path class="cls-1" d="M583.86,3.48c3.84,0,4.8,1.2,4.2,5l-13.2,75.36c-.84,3.72-2.16,4.92-6,4.92H555.78c-3.84,0-4.8-1.2-4.2-4.92l3-17.16c1.44-8.52,5-19.08,10.68-31.44h-1.2a151.31,151.31,0,0,1-11.52,19.8l-9.12,13.56a7.43,7.43,0,0,1-6.36,3.48h-7.8c-3.24,0-4.2-.72-5.16-3.48l-4.56-13.56c-1.8-4.8-3.12-11.4-4.08-19.8h-1.08c1.08,13.08.84,23.64-.72,31.56l-2.88,17c-.6,3.72-2.28,4.92-6,4.92H492.06c-3.84,0-4.8-1.2-4.2-4.92L501.18,8.52c.6-3.84,2.16-5,6-5h11.16c4.2,0,5.52.72,6.48,3.72l12.84,39.36L564.3,7.32c2-3.24,3.48-3.84,7.44-3.84Z"/><path class="cls-1" d="M656.7,3.6c3.84,0,4.92,1.32,4.32,5l-1.92,10.8c-.6,3.84-2.28,5.16-6,5.16H621.42L619.5,35.28h25.32c3.84,0,4.8,1.32,4.2,5l-1.92,10.8c-.84,3.84-2.16,5.16-6,5.16H615.78l-2,11.52H646.5c3.72,0,4.68,1.2,4.08,5l-1.92,10.92c-.6,3.72-2.16,5-6,5H591.42c-3.84,0-5-1.32-4.2-5l13.2-75.12c.84-3.72,2.16-5,6-5Z"/><path class="cls-1" d="M704.58,1.8c17.16,0,25.8,6.12,29.64,17.76,1.08,3.48.36,4.68-3.6,6.24l-11.88,4.68c-3.48,1.44-4.68,1-6-2.52-1.44-4.2-5.16-6.24-11-6.24-7.56,0-11.76,2-12.48,6.24-.84,4.68,4,6,14.52,7.32,13.44,2,30.72,8,26.64,30.12-3.12,16.8-16.56,25.2-40.44,25.2-18.24,0-30.6-6.6-33-18.6-.6-3.24,1-5.4,4.44-6.6l12-4.08C677.22,60,678.9,60.6,680,64c1.44,4.2,5.52,6.36,12.36,6.36,8.52,0,13.32-2.28,14.16-6.84.84-4.32-3.72-5.76-12.84-7.08-6.6-1-10.8-1.68-16.92-4.56a22.21,22.21,0,0,1-7.2-5.16c-3.48-4-5.64-11-4.2-20C668.22,10.68,681.9,1.8,704.58,1.8Z"/><path class="cls-1" d="M750.3,66c7.2,0,9.12,2.4,7.8,9.48l-.84,4.92c-1.32,7.08-4,9.36-11,9.36h-4.56c-7.2,0-9.24-2.28-7.92-9.36l1-4.92c1.32-7.08,4-9.48,11-9.48Z"/><path class="cls-1" d="M862.13,3.48c3.84,0,4.8,1.2,4.2,5l-13.2,75.36c-.84,3.72-2.16,4.92-6,4.92H834.05c-3.84,0-4.8-1.2-4.2-4.92l3-17.16c1.44-8.52,5-19.08,10.68-31.44h-1.2a151.09,151.09,0,0,1-11.52,19.8L821.7,68.64a7.43,7.43,0,0,1-6.36,3.48h-7.8c-3.24,0-4.2-.72-5.16-3.48l-4.56-13.56c-1.8-4.8-3.12-11.4-4.08-19.8h-1.08c1.08,13.08.84,23.64-.72,31.56l-2.88,17c-.6,3.72-2.28,4.92-6,4.92H770.34c-3.84,0-4.8-1.2-4.2-4.92L779.46,8.52c.6-3.84,2.16-5,6-5h11.16c4.2,0,5.52.72,6.48,3.72l12.84,39.36L842.57,7.32c2-3.24,3.48-3.84,7.44-3.84Z"/><path class="cls-1" d="M935,3.6c3.84,0,4.92,1.32,4.32,5l-1.92,10.8c-.6,3.84-2.28,5.16-6,5.16H899.7l-1.92,10.68h25.32c3.84,0,4.8,1.32,4.2,5l-1.92,10.8c-.84,3.84-2.16,5.16-6,5.16H894.06L892,67.8h32.76c3.72,0,4.68,1.2,4.08,5l-1.92,10.92c-.6,3.72-2.16,5-6,5H869.7c-3.84,0-5-1.32-4.2-5L878.7,8.64c.84-3.72,2.16-5,6-5Z"/><path class="cls-1" d="M237.28,107.42c1.22,0,1.63.42,1.63,1.6V132.8c0,1.18-.42,1.6-1.63,1.6H233c-1.22,0-1.6-.42-1.6-1.6V114.07h-4.56v3.57c0,5.36-.76,9.27-2.28,11.82a12.43,12.43,0,0,1-5.66,5.21c-1.06.57-1.56.34-2.17-.76L214.56,130c-.57-1.06-.34-1.6.76-2.2a6.53,6.53,0,0,0,2.89-2.85c.84-1.48,1.22-3.84,1.22-7.29V109c0-1.18.42-1.6,1.63-1.6Z"/><path class="cls-1" d="M264.18,107.42q1.48,0,.8,1.6l-10,24c-.49,1.18-1,1.41-2.62,1.41H247.5q-1.54,0-.8-1.6l2.85-6.38L241.5,109q-.74-1.6.91-1.6h4.48c1.94,0,2.43.15,2.92,1.41l3.69,8.44,3.5-8.44c.46-1.25.87-1.41,2.66-1.41Z"/><path class="cls-1" d="M286,107.42c1.22,0,1.6.42,1.6,1.6V132.8c0,1.18-.38,1.6-1.6,1.6H281.7c-1.22,0-1.63-.42-1.63-1.6v-7.41a24.58,24.58,0,0,1-3.88.27c-7.33,0-10.6-3.53-10.6-10.56V109c0-1.18.38-1.6,1.6-1.6h4.29c1.22,0,1.63.42,1.63,1.6v6.08c0,2.32,1.41,3.5,4.22,3.5a11.47,11.47,0,0,0,2.74-.27V109c0-1.18.42-1.6,1.63-1.6Z"/><path class="cls-1" d="M322.13,107.42c1.18,0,1.6.42,1.6,1.6V132.8c0,1.18-.42,1.6-1.6,1.6H293.06c-1.22,0-1.63-.42-1.63-1.6V109c0-1.18.42-1.6,1.63-1.6h4.29c1.22,0,1.6.42,1.6,1.6v18.73h4.86V109c0-1.18.42-1.6,1.63-1.6h4.29c1.22,0,1.6.42,1.6,1.6v18.73h4.86V109c0-1.18.42-1.6,1.6-1.6Z"/><path class="cls-1" d="M348.88,107.38c1.22,0,1.63.42,1.63,1.63V132.8c0,1.18-.42,1.6-1.63,1.6h-4.26c-1.22,0-1.63-.42-1.63-1.63v-6.46a24.76,24.76,0,0,1,.11-3,19.13,19.13,0,0,1,.34-2.32c.11-.49.19-.87.27-1.1s.15-.68.34-1.41.3-1.22.38-1.56h-.3c-.72,1.94-1.25,3.38-1.67,4.33a34.77,34.77,0,0,1-1.9,3.5l-5.24,8.93a1.63,1.63,0,0,1-1.56.76h-4.6c-1.22,0-1.63-.42-1.63-1.6V109c0-1.18.42-1.6,1.63-1.6h4.29c1.22,0,1.6.42,1.6,1.6v6.5a36.61,36.61,0,0,1-.23,4.71,41.22,41.22,0,0,1-1.18,4.67h.27a58.2,58.2,0,0,1,3.65-7.9l5.17-8.85a1.82,1.82,0,0,1,1.6-.76Z"/><path class="cls-1" d="M371.87,107.42c1.22,0,1.63.42,1.63,1.6v3.42c0,1.22-.42,1.63-1.63,1.63h-10v3.38h8c1.22,0,1.63.42,1.63,1.6v3.42c0,1.22-.42,1.63-1.63,1.63h-8v3.65h10.37c1.18,0,1.6.38,1.6,1.6v3.46c0,1.18-.42,1.6-1.6,1.6H356c-1.22,0-1.63-.42-1.63-1.6V109c0-1.18.42-1.6,1.63-1.6Z"/><path class="cls-1" d="M404.13,107.42c1.18,0,1.6.42,1.6,1.6V132.8c0,1.18-.42,1.6-1.6,1.6H399.8c-1.18,0-1.6-.42-1.6-1.6V114.07H391V132.8c0,1.18-.38,1.6-1.6,1.6h-4.29c-1.22,0-1.63-.42-1.63-1.6V109c0-1.18.42-1.6,1.63-1.6Z"/><path class="cls-1" d="M421.65,107.42c6,0,9.8,3.53,9.8,9.5s-3.76,9.38-9.73,9.38h-4.67v6.5c0,1.18-.38,1.6-1.6,1.6h-4.29c-1.22,0-1.63-.42-1.63-1.6V109c0-1.18.42-1.6,1.63-1.6Zm-.84,12.23a2.62,2.62,0,0,0,2.85-2.77,2.64,2.64,0,0,0-2.85-2.81h-3.76v5.58Z"/><path class="cls-1" d="M455.47,107.38c1.22,0,1.63.42,1.63,1.63V132.8c0,1.18-.42,1.6-1.63,1.6h-4.26c-1.22,0-1.63-.42-1.63-1.63v-6.46a24.76,24.76,0,0,1,.11-3,19.13,19.13,0,0,1,.34-2.32c.11-.49.19-.87.27-1.1s.15-.68.34-1.41.3-1.22.38-1.56h-.3c-.72,1.94-1.25,3.38-1.67,4.33a35,35,0,0,1-1.9,3.5l-5.24,8.93a1.63,1.63,0,0,1-1.56.76h-4.6c-1.22,0-1.63-.42-1.63-1.6V109c0-1.18.42-1.6,1.63-1.6H440c1.22,0,1.6.42,1.6,1.6v6.5a36.61,36.61,0,0,1-.23,4.71,41.22,41.22,0,0,1-1.18,4.67h.27a58.2,58.2,0,0,1,3.65-7.9l5.17-8.85a1.82,1.82,0,0,1,1.6-.76Z"/><path class="cls-1" d="M473.67,107.38c5.28,0,8.4,2.62,8.4,7.22a6.34,6.34,0,0,1-2.74,5.59v.15c2.55,1.1,3.84,3.31,3.84,6.54a6.61,6.61,0,0,1-2.58,5.55,10.84,10.84,0,0,1-6.76,2H462.54c-1.22,0-1.63-.42-1.63-1.6V109c0-1.22.42-1.63,1.63-1.63Zm-1.56,6.12h-3.69v4.18h3.69c1.56,0,2.32-.68,2.32-2.05S473.67,113.5,472.12,113.5Zm.72,10.3h-4.41v4.45h4.41c1.63,0,2.43-.76,2.43-2.24S474.47,123.8,472.84,123.8Z"/><path class="cls-1" d="M510,132.84c.38,1,0,1.56-1.1,1.56h-4.1c-1.94,0-2.54-.38-2.85-1.6l-.87-2.74h-8.21L492,132.8c-.42,1.22-1,1.6-2.77,1.6h-4c-1.06,0-1.41-.53-1-1.56l8.74-24.09c.34-1.06.8-1.33,2-1.33h4.33c1.1,0,1.63.3,2,1.25Zm-12-13.18a21.77,21.77,0,0,1-.8-4.56l0-.76h-.38a17.55,17.55,0,0,1-.72,5.28l-1.41,4.48h4.75Z"/><path class="cls-1" d="M527.33,107.42c1.22,0,1.63.42,1.63,1.6v3.42c0,1.22-.42,1.63-1.63,1.63h-5.62V132.8c0,1.18-.42,1.6-1.63,1.6h-4.29c-1.22,0-1.6-.42-1.6-1.6V114.07h-5.66c-1.22,0-1.6-.42-1.6-1.63V109c0-1.18.38-1.6,1.6-1.6Z"/><path class="cls-1" d="M552.11,107.38c1.18,0,1.6.42,1.6,1.63V132.8c0,1.18-.42,1.6-1.6,1.6h-4.33c-1.18,0-1.6-.42-1.6-1.6v-8.74h-7.37v8.74c0,1.18-.38,1.6-1.6,1.6h-4.29c-1.22,0-1.63-.42-1.63-1.6V109c0-1.22.42-1.63,1.63-1.63h4.29c1.22,0,1.6.42,1.6,1.63v8.4h7.37V109c0-1.22.42-1.63,1.6-1.63Z"/><path class="cls-1" d="M559.14,134.4c-1.22,0-1.63-.42-1.63-1.6V109c0-1.18.42-1.6,1.63-1.6h4.29c1.22,0,1.6.42,1.6,1.6v6.5h4.67c6,0,9.73,3.46,9.73,9.38s-3.84,9.5-9.8,9.5ZM565,122.16v5.59h3.76a2.64,2.64,0,0,0,2.85-2.81,2.62,2.62,0,0,0-2.85-2.77Zm16.79-13.22c0-1.1.42-1.52,1.52-1.52h4.48c1.1,0,1.52.42,1.52,1.52v23.94c0,1.1-.42,1.52-1.52,1.52h-4.48c-1.1,0-1.52-.42-1.52-1.52Z"/><path class="cls-1" d="M610.74,107.42c1.22,0,1.63.42,1.63,1.6v3.42c0,1.22-.42,1.63-1.63,1.63h-10v3.38h8c1.22,0,1.63.42,1.63,1.6v3.42c0,1.22-.42,1.63-1.63,1.63h-8v3.65h10.37c1.18,0,1.6.38,1.6,1.6v3.46c0,1.18-.42,1.6-1.6,1.6H594.82c-1.22,0-1.63-.42-1.63-1.6V109c0-1.18.42-1.6,1.63-1.6Z"/><path class="cls-1" d="M641.94,107.42c1.22,0,1.6.42,1.6,1.6V132.8c0,1.18-.38,1.6-1.6,1.6h-4.29c-1.22,0-1.63-.42-1.63-1.6v-7.41a24.58,24.58,0,0,1-3.88.27c-7.33,0-10.6-3.53-10.6-10.56V109c0-1.18.38-1.6,1.6-1.6h4.29c1.22,0,1.63.42,1.63,1.6v6.08c0,2.32,1.41,3.5,4.22,3.5a11.47,11.47,0,0,0,2.74-.27V109c0-1.18.42-1.6,1.63-1.6Z"/><path class="cls-1" d="M668.73,107.38c1.22,0,1.63.42,1.63,1.63V132.8c0,1.18-.42,1.6-1.63,1.6h-4.26c-1.22,0-1.63-.42-1.63-1.63v-6.46a24.76,24.76,0,0,1,.11-3,19.13,19.13,0,0,1,.34-2.32c.11-.49.19-.87.27-1.1s.15-.68.34-1.41.3-1.22.38-1.56H664c-.72,1.94-1.25,3.38-1.67,4.33a35,35,0,0,1-1.9,3.5l-5.24,8.93a1.63,1.63,0,0,1-1.56.76H649c-1.22,0-1.63-.42-1.63-1.6V109c0-1.18.42-1.6,1.63-1.6h4.29c1.22,0,1.6.42,1.6,1.6v6.5a36.61,36.61,0,0,1-.23,4.71,41.22,41.22,0,0,1-1.18,4.67h.27a58.2,58.2,0,0,1,3.65-7.9l5.17-8.85a1.82,1.82,0,0,1,1.6-.76Z"/><path class="cls-1" d="M693.12,107.42c1.22,0,1.63.42,1.63,1.6v3.42c0,1.22-.42,1.63-1.63,1.63H687.5V132.8c0,1.18-.42,1.6-1.63,1.6h-4.29c-1.22,0-1.6-.42-1.6-1.6V114.07h-5.66c-1.22,0-1.6-.42-1.6-1.63V109c0-1.18.38-1.6,1.6-1.6Z"/><path class="cls-1" d="M698.71,134.4c-1.22,0-1.63-.42-1.63-1.6V109c0-1.18.42-1.6,1.63-1.6H703c1.22,0,1.6.42,1.6,1.6v6.5h4.67c6,0,9.73,3.46,9.73,9.38s-3.84,9.5-9.8,9.5Zm5.89-12.23v5.59h3.76a2.64,2.64,0,0,0,2.85-2.81,2.62,2.62,0,0,0-2.85-2.77Zm16.79-13.22c0-1.1.42-1.52,1.52-1.52h4.48c1.1,0,1.52.42,1.52,1.52v23.94c0,1.1-.42,1.52-1.52,1.52h-4.48c-1.1,0-1.52-.42-1.52-1.52Z"/></svg>