<svg xmlns="http://www.w3.org/2000/svg" width="3873" height="559" viewBox="0 0 3873 559">
  <metadata><?xpacket begin="﻿" id="W5M0MpCehiHzreSzNTczkc9d"?>
<x:xmpmeta xmlns:x="adobe:ns:meta/" x:xmptk="Adobe XMP Core 5.6-c138 79.159824, 2016/09/14-01:09:01        ">
   <rdf:RDF xmlns:rdf="http://www.w3.org/1999/02/22-rdf-syntax-ns#">
      <rdf:Description rdf:about=""/>
   </rdf:RDF>
</x:xmpmeta>
                                                                                                    
                                                                                                    
                                                                                                    
                                                                                                    
                                                                                                    
                                                                                                    
                                                                                                    
                                                                                                    
                                                                                                    
                                                                                                    
                                                                                                    
                                                                                                    
                                                                                                    
                                                                                                    
                                                                                                    
                                                                                                    
                                                                                                    
                                                                                                    
                                                                                                    
                                                                                                    
                           
<?xpacket end="w"?></metadata>
<defs>
    <style>
      .cls-1 {
        fill: #e9e9e9;
        fill-rule: evenodd;
      }
    </style>
  </defs>
  <path id="ЛУЧШИЕ_ПРИВАТНЫЕ_ЧИТЫ" data-name="ЛУЧШИЕ ПРИВАТНЫЕ ЧИТЫ" class="cls-1" d="M888.822,437.968c-5.067,0-6.809,1.742-6.809,6.651v36.1c0,14.409-1.583,24.227-5.067,30.4s-6.492,8.709-12.034,11.875c-4.592,2.534-5.542,4.751-3.167,9.184l9.026,16.151c2.533,4.592,4.592,5.542,9.025,3.167,10.292-5.067,17.1-10.926,23.593-21.693,6.334-10.609,9.5-26.918,9.5-49.244V465.678h19V543.74c0,4.908,1.584,6.65,6.651,6.65h17.892c5.067,0,6.809-1.742,6.809-6.65V444.619c0-4.909-1.742-6.651-6.809-6.651H888.822Zm160.868,0c-7.44,0-9.18.634-11.08,5.859l-14.57,35.152-15.36-35.152c-2.06-5.225-4.12-5.859-12.192-5.859H977.8q-6.888,0-3.8,6.651l33.566,72.52L995.7,543.74q-3.087,6.649,3.325,6.65h20.109c6.97,0,8.87-.95,10.93-5.858l41.8-99.913q2.85-6.651-3.33-6.651h-18.84Zm91.83,0c-5.07,0-6.81,1.742-6.81,6.651v38.793a47.817,47.817,0,0,1-11.4,1.109c-11.71,0-17.57-4.909-17.57-14.568V444.619c0-4.909-1.74-6.651-6.81-6.651h-17.89c-5.07,0-6.65,1.742-6.65,6.651v25.334c0,29.293,13.61,44.019,44.17,44.019a102.249,102.249,0,0,0,16.15-1.108V543.74c0,4.908,1.74,6.65,6.81,6.65h17.89c5.07,0,6.65-1.742,6.65-6.65V444.619c0-4.909-1.58-6.651-6.65-6.651h-17.89Zm150.42,0c-4.91,0-6.65,1.742-6.65,6.651v78.062h-20.27V444.619c0-4.909-1.58-6.651-6.65-6.651h-17.89c-5.07,0-6.81,1.742-6.81,6.651v78.062H1213.4V444.619c0-4.909-1.58-6.651-6.65-6.651h-17.89c-5.07,0-6.81,1.742-6.81,6.651V543.74c0,4.908,1.74,6.65,6.81,6.65h121.13c4.91,0,6.65-1.742,6.65-6.65V444.619c0-4.909-1.74-6.651-6.65-6.651h-18.05Zm110.51-.158a7.584,7.584,0,0,0-6.65,3.167l-21.53,36.893c-4.43,7.442-9.5,18.526-15.2,32.935h-1.11a173.314,173.314,0,0,0,4.91-19.476,153.611,153.611,0,0,0,.95-19.634V444.619c0-4.909-1.59-6.651-6.65-6.651h-17.89c-5.07,0-6.81,1.742-6.81,6.651V543.74c0,4.908,1.74,6.65,6.81,6.65h19.15c3.17,0,5.39-1.108,6.5-3.167l21.85-37.21a145.272,145.272,0,0,0,7.91-14.567c1.75-3.958,3.96-9.975,6.97-18.051h1.27c-0.32,1.425-.79,3.484-1.59,6.492s-1.26,4.909-1.42,5.859c-0.32.95-.63,2.533-1.11,4.592a78.218,78.218,0,0,0-1.42,9.658,102.373,102.373,0,0,0-.48,12.668v26.918c0,5.066,1.74,6.808,6.81,6.808h17.73c5.07,0,6.81-1.742,6.81-6.65V444.619c0-5.067-1.74-6.809-6.81-6.809h-19Zm48.45,0.158c-5.07,0-6.81,1.742-6.81,6.651V543.74c0,4.908,1.74,6.65,6.81,6.65h67.77c4.91,0,6.65-1.742,6.65-6.65V529.331c0-5.067-1.74-6.65-6.65-6.65h-43.23v-15.2h33.41c5.07,0,6.81-1.742,6.81-6.809v-14.25c0-4.909-1.74-6.651-6.81-6.651h-33.41V465.678h41.8c5.07,0,6.81-1.742,6.81-6.809v-14.25c0-4.909-1.74-6.651-6.81-6.651H1450.9Zm121.6,0c-5.07,0-6.81,1.742-6.81,6.651V543.74c0,4.908,1.74,6.65,6.81,6.65h17.89c5.07,0,6.65-1.742,6.65-6.65V465.678h29.93V543.74c0,4.908,1.74,6.65,6.65,6.65h18.05c4.91,0,6.65-1.742,6.65-6.65V444.619c0-4.909-1.74-6.651-6.65-6.651H1572.5Zm108.45,0c-5.06,0-6.8,1.742-6.8,6.651V543.74c0,4.908,1.74,6.65,6.8,6.65h17.9c5.06,0,6.65-1.742,6.65-6.65V516.664h19.47c24.86,0,40.54-14.409,40.54-39.11,0-24.86-15.99-39.586-40.85-39.586h-43.71Zm24.55,50.986V465.678h15.67c7.45,0,11.88,4.75,11.88,11.717s-4.43,11.559-11.88,11.559H1705.5Zm141.07-51.144a7.584,7.584,0,0,0-6.65,3.167l-21.53,36.893c-4.44,7.442-9.5,18.526-15.2,32.935h-1.11a173.314,173.314,0,0,0,4.91-19.476,153.611,153.611,0,0,0,.95-19.634V444.619c0-4.909-1.59-6.651-6.65-6.651h-17.9c-5.06,0-6.8,1.742-6.8,6.651V543.74c0,4.908,1.74,6.65,6.8,6.65h19.16c3.17,0,5.39-1.108,6.5-3.167l21.85-37.21a145.272,145.272,0,0,0,7.91-14.567c1.75-3.958,3.96-9.975,6.97-18.051h1.27c-0.32,1.425-.79,3.484-1.59,6.492s-1.26,4.909-1.42,5.859c-0.32.95-.63,2.533-1.11,4.592a78.218,78.218,0,0,0-1.42,9.658,102.373,102.373,0,0,0-.48,12.668v26.918c0,5.066,1.74,6.808,6.81,6.808h17.73c5.07,0,6.81-1.742,6.81-6.65V444.619c0-5.067-1.74-6.809-6.81-6.809h-19Zm48.45,0c-5.07,0-6.81,1.742-6.81,6.809V543.74c0,4.908,1.74,6.65,6.81,6.65h47.02c11.56,0,20.91-2.692,28.19-8.233,7.12-5.542,10.77-13.143,10.77-23.118,0-13.459-5.39-22.643-16-27.235v-0.633q11.4-7.837,11.4-23.276c0-19.159-12.98-30.085-34.99-30.085h-46.39Zm49.56,34.36c0,5.7-3.17,8.55-9.66,8.55h-15.36V463.3h15.36C1941.41,463.3,1944.58,466.311,1944.58,472.17Zm3.48,43.227c0,6.175-3.32,9.342-10.13,9.342h-18.37V506.213h18.37C1944.74,506.213,1948.06,509.222,1948.06,515.4Zm107.98-72.2c-1.42-3.959-3.64-5.226-8.23-5.226h-18.05c-4.91,0-6.81,1.109-8.23,5.542L1985.11,543.9c-1.59,4.275-.16,6.492,4.27,6.492h16.63c7.6,0,9.82-1.583,11.56-6.65l3.64-11.4h34.2l3.64,11.4c1.27,5.067,3.8,6.65,11.88,6.65h17.1c4.59,0,6.17-2.217,4.59-6.492Zm-7.75,64.286h-19.8l5.86-18.684a73.085,73.085,0,0,0,3.01-22.01h1.58l0.16,3.167a90.811,90.811,0,0,0,3.33,19Zm38.31-69.512c-5.07,0-6.65,1.742-6.65,6.651v14.25c0,5.067,1.58,6.809,6.65,6.809h23.59V543.74c0,4.908,1.59,6.65,6.65,6.65h17.89c5.07,0,6.81-1.742,6.81-6.65V465.678h23.44c5.06,0,6.81-1.742,6.81-6.809v-14.25c0-4.909-1.75-6.651-6.81-6.651H2086.6Zm163.56-.158c-4.91,0-6.65,1.742-6.65,6.809v34.993h-30.72V444.619c0-5.067-1.58-6.809-6.65-6.809h-17.89c-5.07,0-6.81,1.742-6.81,6.809V543.74c0,4.908,1.74,6.65,6.81,6.65h17.89c5.07,0,6.65-1.742,6.65-6.65V507.322h30.72V543.74c0,4.908,1.74,6.65,6.65,6.65h18.05c4.91,0,6.65-1.742,6.65-6.65V444.619c0-5.067-1.74-6.809-6.65-6.809h-18.05Zm91.04,112.58c24.86,0,40.85-14.725,40.85-39.585,0-24.7-15.68-39.11-40.53-39.11h-19.48V444.619c0-4.909-1.58-6.651-6.65-6.651H2297.5c-5.07,0-6.81,1.742-6.81,6.651V543.74c0,4.908,1.74,6.65,6.81,6.65h43.7Zm50.83-6.333c0,4.591,1.74,6.333,6.33,6.333h18.68c4.6,0,6.34-1.742,6.34-6.333V444.3c0-4.592-1.74-6.334-6.34-6.334h-18.68c-4.59,0-6.33,1.742-6.33,6.334v99.755Zm-54.31-44.652c7.44,0,11.87,4.591,11.87,11.558s-4.43,11.718-11.87,11.718h-15.68V499.405h15.68Zm108.45-61.437c-5.07,0-6.81,1.742-6.81,6.651V543.74c0,4.908,1.74,6.65,6.81,6.65h67.77c4.91,0,6.65-1.742,6.65-6.65V529.331c0-5.067-1.74-6.65-6.65-6.65h-43.23v-15.2h33.41c5.07,0,6.81-1.742,6.81-6.809v-14.25c0-4.909-1.74-6.651-6.81-6.651h-33.41V465.678h41.81c5.06,0,6.8-1.742,6.8-6.809v-14.25c0-4.909-1.74-6.651-6.8-6.651h-66.35Zm178.44,0c-5.06,0-6.81,1.742-6.81,6.651v38.793a47.817,47.817,0,0,1-11.4,1.109c-11.71,0-17.57-4.909-17.57-14.568V444.619c0-4.909-1.74-6.651-6.81-6.651h-17.89c-5.07,0-6.65,1.742-6.65,6.651v25.334c0,29.293,13.61,44.019,44.17,44.019a102.163,102.163,0,0,0,16.15-1.108V543.74c0,4.908,1.75,6.65,6.81,6.65h17.9c5.06,0,6.65-1.742,6.65-6.65V444.619c0-4.909-1.59-6.651-6.65-6.651h-17.9Zm110.52-.158a7.572,7.572,0,0,0-6.65,3.167l-21.54,36.893c-4.43,7.442-9.5,18.526-15.2,32.935h-1.1a172.82,172.82,0,0,0,4.9-19.476,151.768,151.768,0,0,0,.95-19.634V444.619c0-4.909-1.58-6.651-6.65-6.651h-17.89c-5.07,0-6.81,1.742-6.81,6.651V543.74c0,4.908,1.74,6.65,6.81,6.65h19.16c3.17,0,5.38-1.108,6.49-3.167l21.85-37.21a143.631,143.631,0,0,0,7.92-14.567c1.74-3.958,3.96-9.975,6.97-18.051h1.26c-0.31,1.425-.79,3.484-1.58,6.492s-1.27,4.909-1.42,5.859c-0.32.95-.64,2.533-1.11,4.592a80.3,80.3,0,0,0-1.43,9.658,104.537,104.537,0,0,0-.47,12.668v26.918c0,5.066,1.74,6.808,6.81,6.808h17.73c5.07,0,6.81-1.742,6.81-6.65V444.619c0-5.067-1.74-6.809-6.81-6.809h-19Zm42.27,0.158c-5.07,0-6.65,1.742-6.65,6.651v14.25c0,5.067,1.58,6.809,6.65,6.809h23.59V543.74c0,4.908,1.58,6.65,6.65,6.65h17.89c5.07,0,6.81-1.742,6.81-6.65V465.678h23.44c5.06,0,6.81-1.742,6.81-6.809v-14.25c0-4.909-1.75-6.651-6.81-6.651H2777.4ZM2922.75,550.39c24.86,0,40.85-14.725,40.85-39.585,0-24.7-15.67-39.11-40.53-39.11h-19.48V444.619c0-4.909-1.58-6.651-6.65-6.651h-17.89c-5.07,0-6.81,1.742-6.81,6.651V543.74c0,4.908,1.74,6.65,6.81,6.65h43.7Zm50.83-6.333c0,4.591,1.74,6.333,6.33,6.333h18.69c4.59,0,6.33-1.742,6.33-6.333V444.3c0-4.592-1.74-6.334-6.33-6.334h-18.69c-4.59,0-6.33,1.742-6.33,6.334v99.755Zm-54.31-44.652c7.44,0,11.87,4.591,11.87,11.558s-4.43,11.718-11.87,11.718h-15.68V499.405h15.68Z"/>
  <path id="HACKGAMES.SU" class="cls-1" d="M310.769,9.875c-15.5,0-22.5,5.5-25,21.5l-19.5,110.5h-96.5l19.5-110.5c2.5-16-1.5-21.5-17.5-21.5h-56.5c-16,0-21.5,5.5-25,21.5l-55.5,313c-2.5,15.5,1.5,21,17.5,21h56.5c16,0,22.5-5.5,25-21l20.5-115h96.5l-20,115c-3.5,15.5,1.5,21,17.5,21h56.5c16,0,21.5-5.5,25-21l55-313c2.5-16-1.5-21.5-17-21.5h-57Zm336.493,17c-2.5-12.5-9-16.5-23.5-16.5h-56.5c-15.5,0-21.5,3.5-29,17.5l-171,317c-7.5,13.5-4.5,20.5,9.5,20.5h55c24,0,32-5,40-21l17.5-36h108.5l5,36c1.5,16,9,21,33.5,21h52c15,0,21-7,18.5-20.5Zm-58.5,203h-62l28.5-59a289.44,289.44,0,0,0,22.5-69.5h4.5l-1.5,10.5c-1.5,14-2,36,0,59.5Zm142.5-1.5c-7.5,43.5.5,78.5,23.5,105,22.5,26.5,58,39.5,106.5,39.5,76.5,0,130-29,161.5-86.5,7.5-13.5,4.5-22.5-8.5-27l-52-20c-14-5.5-20-2.5-29.5,13.5-12,21.5-31,32.5-57.5,32.5-38.5,0-52-16.5-46-52l16.5-91c6-35.5,25.5-52,64-52,28,0,41,10,45.5,32.5,3.5,15.5,9,18,25,13.5l51.5-17.5c16-4.5,20.5-12.5,17-27-11-59.5-52.5-89-124.5-89-98.5,0-162,47-176.5,133Zm556.49-12.5c-6-16.5-14.5-29-25.5-36.5l118.5-147c10-13.5,7-22-8.5-22h-58c-12.5,0-21,1-26,3-5,2.5-10.5,7.5-17,15.5l-91.5,113.5h-11l19.5-111c3.5-15.5-1.5-21-17.5-21h-56.5c-16,0-21.5,5.5-25,21l-55,313c-3.5,15.5,1.5,21,17.5,21h56.5c16,0,21.5-5.5,25-21l20-114.5h8.5c18,0,24.5,7.5,30,25l28,89.5c6,17.5,14,21,40.5,21h54c16,0,22-10.5,17.5-24.5Zm253.5-54.5c-16,0-21.5,5.5-25,21.5l-6.5,37.5c-2.5,16,1.5,21,17.5,21h48l-1.5,10c-4,21.5-26.5,34-60.5,34-38.5,0-51.5-16.5-45.5-52l16-91c6.5-35.5,25.5-52,64-52,26.5,0,42,10,47,30.5,3.5,15.5,8.5,18,25,13.5l51-15.5c16-4.5,21-11.5,17.5-27-11.5-59.5-53.5-89-126-89-99.5,0-161.5,46-176,132.5l-16,90.5q-11.25,66,22.5,106.5t106.5,40.5c97.5,0,160.5-45,173-117.5l12.5-72.5c2.5-16-1.5-21.5-17-21.5h-126.5Zm402-134.5c-2.5-12.5-9-16.5-23.5-16.5h-56.5c-15.5,0-21.5,3.5-29,17.5l-171,317c-7.5,13.5-4.5,20.5,9.5,20.5h55c24,0,32-5,40-21l17.5-36h108.5l5,36c1.5,16,9,21,33.5,21h52c15,0,21-7,18.5-20.5Zm-58.5,203h-62l28.5-59a289.44,289.44,0,0,0,22.5-69.5h4.5l-1.5,10.5c-1.5,14-2,36,0,59.5Zm485.5-220c-16.5,0-22.5,2.5-31,16l-111,163.5-53.5-164c-4-12.5-9.5-15.5-27-15.5h-46.5c-16,0-22.5,5-25,21l-55.5,314c-2.5,15.5,1.5,20.5,17.5,20.5h53c15.5,0,22.5-5,25-20.5l12-71c6.5-33,7.5-77,3-131.5h4.5c4,35,9.5,62.5,17,82.5l19,56.5c4,11.5,8,14.5,21.5,14.5h32.5c11,0,20-5,26.5-14.5l38-56.5a630.225,630.225,0,0,0,48-82.5h5c-23.5,51.5-38.5,95.5-44.5,131l-12.5,71.5c-2.5,15.5,1.5,20.5,17.5,20.5h54.5c16,0,21.5-5,25-20.5l55-314c2.5-16-1.5-21-17.5-21h-50.5Zm144.49,0.5c-16,0-21.5,5.5-25,21l-55,313c-3.5,15.5,1.5,21,17.5,21h213.5c16,0,22.5-5.5,25-21l8-45.5c2.5-16-1.5-21-17-21h-136.5l8.5-48h105.5c16,0,21.5-5.5,25-21.5l8-45c2.5-15.5-1.5-21-17.5-21h-105.5l8-44.5h132c15.5,0,22.5-5.5,25-21.5l8-45c2.5-15.5-2-21-18-21h-209.5Zm245.5,96c-6,37.5,3,67,17.5,83.5,7.5,8.5,17.5,15.5,30,21.5,25.5,12,43,15,70.5,19,38,5.5,57,11.5,53.5,29.5-3.5,19-23.5,28.5-59,28.5-28.5,0-45.5-9-51.5-26.5-4.5-14-11.5-16.5-27.5-11l-50,17c-14.5,5-21,14-18.5,27.5,10,50,61.5,77.5,137.5,77.5,99.5,0,155.5-35,168.5-105,17-92-55-117-111-125.5-44-5.5-64-11-60.5-30.5,3-17.5,20.5-26,52-26,24.5,0,40,8.5,46,26,5.5,14.5,10.5,16.5,25,10.5l49.5-19.5c16.5-6.5,19.5-11.5,15-26-16-48.5-52-74-123.5-74C2829.24,2.875,2772.24,39.875,2760.24,106.375Zm335,164c-29.5,0-40.5,10-46,39.5l-4,20.5c-5.5,29.5,3,39,33,39h19c29.5,0,40.5-9.5,46-39l3.5-20.5c5.5-29.5-2.5-39.5-32.5-39.5h-19Zm117-164c-6,37.5,3,67,17.5,83.5,7.5,8.5,17.5,15.5,30,21.5,25.5,12,43,15,70.5,19,38,5.5,57,11.5,53.5,29.5-3.5,19-23.5,28.5-59,28.5-28.5,0-45.5-9-51.5-26.5-4.5-14-11.5-16.5-27.5-11l-50,17c-14.5,5-21,14-18.5,27.5,10,50,61.5,77.5,137.5,77.5,99.5,0,155.5-35,168.5-105,17-92-55-117-111-125.5-44-5.5-64-11-60.5-30.5,3-17.5,20.5-26,52-26,24.5,0,40,8.5,46,26,5.5,14.5,10.5,16.5,25,10.5l49.5-19.5c16.5-6.5,19.5-11.5,15-26-16-48.5-52-74-123.5-74C3281.24,2.875,3224.24,39.875,3212.24,106.375Zm449.5-75c3.5-15.5-1.5-21-17.5-21h-56.5c-16,0-21.5,5.5-25,21l-34.5,195c-7.5,43.5-.5,78.5,21.5,105.5,22,27.5,57,41,105.5,41,98,0,156-45.5,171.5-130l37.5-211.5c2.5-15.5-2-21-17.5-21h-57c-15.5,0-22,5.5-24.5,21l-37,208c-5.5,30.5-25,46-59.5,46s-49.5-15.5-44-46Z"/>
</svg>
